<?xml version="1.0" encoding="utf-8"?>
<!--
 Copyright 2018 Hippo B.V. (http://www.onehippo.com)
-->
<svg xmlns="http://www.w3.org/2000/svg" viewBox="0 0 551.5 142.86">
  <defs>
    <style>.cls-1{fill:#00b3e3;}.cls-2{fill:#00bbdb;}</style>
  </defs>
  <g>
    <path d="M72.46,3A68.46,68.46,0,0,0,29.19,124.5V30.72H47.27v41a36,36,0,0,1,18.09-4.85q1,0,1.91.05l.59,0c.43,0,.86.06,1.28.1l.68.09,1.18.15.68.12,1.15.21.66.15,1.14.28.61.18c.38.11.78.22,1.15.34l.58.19,1.16.41.52.21,1.18.49.46.21,1.19.57.4.21c.42.21.82.42,1.22.65l.34.2,1.23.75.28.18c.42.27.83.55,1.24.84l.22.16c.42.31.84.62,1.26.95l.16.13c.43.34.85.69,1.26,1l.1.09c.43.38.85.76,1.26,1.17l.05,0c.43.41.85.84,1.25,1.28l.09.09a36.15,36.15,0,0,1-26.51,60.75,35.26,35.26,0,0,1-4.41-.28A68.46,68.46,0,1,0,72.46,3Z"/>
    <path d="M77.61,89.78c-.42-.39-.86-.76-1.32-1.1l-.19-.14c-.42-.31-.85-.6-1.31-.88l-.3-.18c-.42-.24-.85-.47-1.29-.69l-.41-.19c-.42-.19-.84-.36-1.27-.52l-.5-.18c-.42-.13-.85-.25-1.27-.36l-.57-.15c-.44-.09-.89-.16-1.34-.22-.19,0-.36-.07-.55-.09A18.15,18.15,0,1,0,79,91.19c-.4-.46-.84-.91-1.29-1.33Z"/>
    <path class="cls-1" d="M60.94,138.94a64.63,64.63,0,0,1-6.85-1.54A34.91,34.91,0,0,0,60.94,138.94Z"/>
    <path class="cls-2" d="M101.52,103.06a36,36,0,0,0-9.65-24.58l-.09-.09L79,91.19a18.08,18.08,0,1,1-31.7,11.87v31.31a35.36,35.36,0,0,0,6.82,3,64.63,64.63,0,0,0,6.85,1.54,35.26,35.26,0,0,0,4.41.28A36.16,36.16,0,0,0,101.52,103.06Z"/>
    <path class="cls-2" d="M47.27,71.74v-41H29.19v72.34A36.14,36.14,0,0,1,47.27,71.74Z"/>
    <path d="M172.79,36h17.36v7H172.79V54.74H192v7H165.35V18.35h26.29v7H172.79Z"/>
    <path d="M217.42,45.38l-9.49,16.37h-8.37l14-22.44-13.14-21h8.8l8.87,15,8.74-15H235l-13.14,21L236,61.75h-8.87Z"/>
    <path d="M244.49,18.35h14.76a15.9,15.9,0,0,1,5.89,1.05,13.5,13.5,0,0,1,4.56,2.91,12.82,12.82,0,0,1,2.91,4.4,15.39,15.39,0,0,1,0,11,12.81,12.81,0,0,1-2.91,4.4,13.48,13.48,0,0,1-4.56,2.91,15.87,15.87,0,0,1-5.89,1.05h-7.32V61.75h-7.44Zm13.83,20.77q3.84,0,5.8-1.88a6.62,6.62,0,0,0,2-5,6.62,6.62,0,0,0-2-5q-2-1.88-5.8-1.88h-6.39V39.12Z"/>
    <path d="M290.2,36h17.36v7H290.2V54.74h19.22v7H282.76V18.35H309v7H290.2Z"/>
    <path d="M320.71,18.35H335a16.79,16.79,0,0,1,5.89,1,13.22,13.22,0,0,1,4.56,2.79,12.32,12.32,0,0,1,2.91,4.28,14.17,14.17,0,0,1,1,5.46,13.9,13.9,0,0,1-2.51,8.37,12.17,12.17,0,0,1-7.16,4.65l10.85,16.86h-8.68L331.56,45.38h-3.41V61.75h-7.44ZM334,38.25a9,9,0,0,0,5.67-1.61,5.74,5.74,0,0,0,2.08-4.84A5.74,5.74,0,0,0,339.71,27,9,9,0,0,0,334,25.35h-5.89v12.9Z"/>
    <path d="M361,18.35h7.44v43.4H361Z"/>
    <path d="M389.34,36H406.7v7H389.34V54.74h19.22v7H381.9V18.35h26.29v7H389.34Z"/>
    <path d="M426.55,18.35l21.7,29.88V18.35h7.44v43.4H449l-21.7-29.82V61.75h-7.44V18.35Z"/>
    <path d="M488.28,55.55a14.64,14.64,0,0,0,5.05-.81A15.69,15.69,0,0,0,497,52.88a12.29,12.29,0,0,0,3-2.67l5,4.9a18.4,18.4,0,0,1-4.22,3.72,23.35,23.35,0,0,1-5.24,2.54,21.47,21.47,0,0,1-7.22,1.12,22.21,22.21,0,0,1-8.74-1.71,21.18,21.18,0,0,1-7-4.71,21.84,21.84,0,0,1-4.62-7.1A23.35,23.35,0,0,1,466.27,40a23.35,23.35,0,0,1,1.67-8.93,21.85,21.85,0,0,1,4.62-7.1,21.2,21.2,0,0,1,7-4.71,22.21,22.21,0,0,1,8.74-1.71,20.06,20.06,0,0,1,6.88,1.08,28.77,28.77,0,0,1,5,2.33,21.58,21.58,0,0,1,4.15,3.41l-5,4.9A16.1,16.1,0,0,0,496.46,27,21.15,21.15,0,0,0,493,25.32a13.26,13.26,0,0,0-4.71-.78,13.68,13.68,0,0,0-10.45,4.62,15.8,15.8,0,0,0-2.95,4.93,17.34,17.34,0,0,0,0,11.9,15.81,15.81,0,0,0,2.95,4.93,13.68,13.68,0,0,0,10.45,4.62Z"/>
    <path d="M521.26,36h17.36v7H521.26V54.74h19.22v7H513.82V18.35h26.29v7H521.26Z"/>
    <path d="M172.23,85.35l14.14,21.82L200.5,85.35h6.88v43.4h-7.44V99.61l-13.58,20.65L172.79,99.61v29.14h-7.44V85.35Z"/>
    <path d="M232.8,85.35h7.56l16.86,43.4h-7.5l-4-10.29H227.41l-4,10.29h-7.5Zm-2.73,26.29h13l-6.51-16.93Z"/>
    <path d="M272.48,85.35l21.7,29.88V85.35h7.44v43.4h-6.7l-21.7-29.82v29.82h-7.44V85.35Z"/>
    <path d="M327,85.35h7.56l16.86,43.4H344l-4-10.29H321.65l-4,10.29h-7.5Zm-2.73,26.29h13l-6.51-16.93Z"/>
    <path d="M379.86,122.55a22,22,0,0,0,4-.31,14.08,14.08,0,0,0,2.7-.74,7.3,7.3,0,0,0,2-1.05v-9.18h-9.86v-6.94h17.17V124a18.57,18.57,0,0,1-4.09,2.73,27,27,0,0,1-5,1.89,25.79,25.79,0,0,1-6.94.84,23.27,23.27,0,0,1-8.93-1.71,22.65,22.65,0,0,1-7.25-4.71,21.83,21.83,0,0,1-4.87-7.1A22.27,22.27,0,0,1,357,107a22.62,22.62,0,0,1,1.74-8.93,22.13,22.13,0,0,1,4.74-7.1,21.68,21.68,0,0,1,7.13-4.71,23.06,23.06,0,0,1,8.9-1.7,21.89,21.89,0,0,1,7,1,24.18,24.18,0,0,1,5,2.26,18.74,18.74,0,0,1,4,3.22l-5.08,5a12.37,12.37,0,0,0-2.73-2.23,16.55,16.55,0,0,0-3.41-1.58,14.74,14.74,0,0,0-4.84-.71,14.37,14.37,0,0,0-6,1.24,14.58,14.58,0,0,0-4.71,3.38A15.89,15.89,0,0,0,364.61,107a15.49,15.49,0,0,0,1.15,6,15.68,15.68,0,0,0,3.19,4.93,15.08,15.08,0,0,0,4.84,3.38A14.76,14.76,0,0,0,379.86,122.55Z"/>
    <path d="M415.45,103h17.36v7H415.45v11.72h19.22v7H408V85.35H434.3v7H415.45Z"/>
    <path d="M446,85.35h14.26a16.81,16.81,0,0,1,5.89,1,13.24,13.24,0,0,1,4.56,2.79,12.3,12.3,0,0,1,2.91,4.28,14.18,14.18,0,0,1,1,5.46,13.9,13.9,0,0,1-2.51,8.37,12.16,12.16,0,0,1-7.16,4.65l10.85,16.86H467.1l-10.29-16.37H453.4v16.37H446Zm13.33,19.9a9,9,0,0,0,5.67-1.61A6.67,6.67,0,0,0,465,94a9,9,0,0,0-5.67-1.61H453.4v12.9Z"/>
  </g>
</svg>
